<?xml version="1.0" encoding="UTF-8"?>
<svg version="1.1" xmlns="http://www.w3.org/2000/svg" width="512" height="512">
<path d="M0 0 C0.78956589 -0.00979385 1.57913177 -0.01958771 2.3926239 -0.02967834 C20.09803253 -0.20397215 37.23415999 -0.03038412 54.53125 4.23828125 C55.38589844 4.44727051 56.24054688 4.65625977 57.12109375 4.87158203 C106.50228744 17.41417974 147.76986947 49.69942558 173.7109375 93.21728516 C182.00108346 107.52682821 188.02321349 122.91492446 192.34375 138.86328125 C192.61783691 139.86174072 192.61783691 139.86174072 192.89746094 140.88037109 C196.52128188 155.17805281 198.03692757 169.57048441 197.92236328 184.29052734 C197.90624842 186.73852181 197.92235419 189.18486646 197.94140625 191.6328125 C197.9612433 206.29184135 196.15126413 220.77838278 192.21875 234.92578125 C192.00710205 235.70284424 191.7954541 236.47990723 191.57739258 237.28051758 C187.73125741 251.00712075 182.21074148 263.67024823 175.53125 276.23828125 C174.92667969 277.39972656 174.32210938 278.56117188 173.69921875 279.7578125 C165.53576119 294.79576063 154.56915251 308.13417222 142.53125 320.23828125 C141.78222412 320.99334961 141.78222412 320.99334961 141.01806641 321.76367188 C132.33094234 330.40365865 122.76699132 337.53330345 112.53125 344.23828125 C111.8614209 344.67914063 111.1915918 345.12 110.50146484 345.57421875 C91.95840509 357.58739121 71.06659963 365.54251275 49.53125 370.23828125 C48.32662109 370.50294189 48.32662109 370.50294189 47.09765625 370.77294922 C23.82203404 375.59337262 -3.31663408 375.43327447 -26.46875 370.23828125 C-27.34789062 370.05023926 -28.22703125 369.86219727 -29.1328125 369.66845703 C-58.95108325 363.1431147 -84.44678823 349.74462642 -108.46875 331.23828125 C-112.47392396 332.84201273 -115.1458598 335.65942111 -118.109375 338.68359375 C-118.63642029 339.21346893 -119.16346558 339.74334412 -119.70648193 340.28927612 C-121.38200675 341.9759595 -123.05042722 343.66947689 -124.71875 345.36328125 C-125.85630851 346.51087513 -126.99432436 347.65801586 -128.1328125 348.8046875 C-130.91678465 351.61066262 -133.6944076 354.42278589 -136.46875 357.23828125 C-134.90393754 360.56518046 -133.25390999 362.56134726 -130.53125 365.05078125 C-125.84240296 369.64602154 -123.86035221 373.1054636 -123.03125 379.73828125 C-123.86756837 386.42882819 -127.83874986 390.98339133 -132.47851562 395.62226868 C-132.96913734 396.1168648 -133.45975906 396.61146093 -133.96524811 397.12104481 C-135.59480829 398.76015349 -137.23477134 400.38841834 -138.875 402.0168457 C-140.05198033 403.19625637 -141.22831448 404.37631219 -142.40405273 405.55696106 C-145.58718268 408.74946779 -148.77960629 411.93252648 -151.97409058 415.11366677 C-155.31890278 418.44713705 -158.65597193 421.78834309 -161.99414062 425.12846375 C-167.5976681 430.73287302 -173.20713515 436.3312821 -178.8203125 441.92602539 C-185.31029254 448.39481379 -191.79137229 454.87241387 -198.26764679 461.35492164 C-204.50144674 467.59441408 -210.74089808 473.82822392 -216.9831543 480.0592556 C-219.63871922 482.71017568 -222.29238994 485.36297088 -224.94458008 488.01726723 C-228.0655605 491.14012999 -231.19148654 494.25795679 -234.32131958 497.37194633 C-235.46951924 498.515901 -236.61602447 499.66155926 -237.76071167 500.80902863 C-239.32222779 502.37376393 -240.88975465 503.93221813 -242.45898438 505.48921204 C-243.7730426 506.80019096 -243.7730426 506.80019096 -245.11364746 508.1376543 C-248.95357699 511.56266842 -251.72540877 512.5415958 -256.84375 512.61328125 C-257.75898438 512.64164063 -258.67421875 512.67 -259.6171875 512.69921875 C-267.51633156 511.42237081 -273.25039492 503.74571088 -278.609375 498.36328125 C-279.58220766 497.39179782 -280.55533687 496.42061128 -281.52874756 495.44970703 C-283.55921373 493.4221772 -285.58604927 491.39110524 -287.61035156 489.35742188 C-290.20159952 486.75474974 -292.8017652 484.16120137 -295.40469742 481.57022095 C-297.41233801 479.5698133 -299.41518358 477.56465938 -301.41661835 475.55804443 C-302.83756824 474.13511834 -304.26253533 472.71620753 -305.68756104 471.29736328 C-306.54895691 470.42966309 -307.41035278 469.56196289 -308.29785156 468.66796875 C-309.05696838 467.90726074 -309.81608521 467.14655273 -310.59820557 466.36279297 C-313.87341954 462.64289712 -314.77475902 459.78923696 -314.84375 454.86328125 C-314.87210937 453.94804687 -314.90046875 453.0328125 -314.9296875 452.08984375 C-313.98236098 446.22926446 -309.57280326 442.09126734 -305.51040649 438.01924133 C-305.02527946 437.53028875 -304.54015242 437.04133617 -304.04032457 436.53756684 C-302.42693049 434.91392202 -300.80655219 433.29744143 -299.18603516 431.6809082 C-298.02237465 430.51289693 -296.85913165 429.34446957 -295.6962738 428.17565918 C-292.5460153 425.01204115 -289.38941337 421.85482651 -286.23120165 418.69915032 C-283.59266084 416.06168093 -280.95710639 413.42123722 -278.32149637 410.78083962 C-272.10371956 404.55197894 -265.88064316 398.32844804 -259.65429688 392.1081543 C-253.23468988 385.69459184 -246.8243252 379.27189658 -240.41839182 372.84467918 C-234.91284652 367.32151628 -229.40150967 361.80417978 -223.88552129 356.29144639 C-220.59336857 353.00110583 -217.30347569 349.70858361 -214.01918411 346.41039467 C-210.93144881 343.31008258 -207.8365399 340.21711499 -204.73599434 337.12961578 C-203.6006507 335.99663748 -202.46785006 334.86110415 -201.33782387 333.72282219 C-199.7924252 332.16695141 -198.23802229 330.62065783 -196.68106079 329.07637024 C-195.8142399 328.20938161 -194.94741901 327.34239298 -194.05433083 326.44913197 C-190.31814616 323.25443526 -186.97880135 321.43402865 -182.09375 320.80078125 C-172.85171479 321.91619929 -167.58247008 327.6150845 -161.46875 334.23828125 C-157.46357604 332.63454977 -154.7916402 329.81714139 -151.828125 326.79296875 C-151.30107971 326.26309357 -150.77403442 325.73321838 -150.23101807 325.18728638 C-148.55549325 323.500603 -146.88707278 321.80708561 -145.21875 320.11328125 C-144.08119149 318.96568737 -142.94317564 317.81854664 -141.8046875 316.671875 C-139.02071535 313.86589988 -136.2430924 311.05377661 -133.46875 308.23828125 C-135.04725444 304.03244973 -136.96326474 301.20604991 -139.84375 297.73828125 C-156.2935509 276.95766994 -167.15971618 251.10745536 -172.46875 225.23828125 C-172.62956055 224.48885254 -172.79037109 223.73942383 -172.95605469 222.96728516 C-178.1531748 197.69427943 -177.40117331 169.25882586 -171.46875 144.23828125 C-171.26507813 143.3575293 -171.06140625 142.47677734 -170.8515625 141.56933594 C-159.50520386 94.0301944 -128.41974863 52.44114671 -87.03271484 26.72460938 C-61.18424665 11.26173228 -30.38377857 0.31300756 0 0 Z " fill="#FEB531" transform="translate(314.46875,-0.23828125)"/>
<path d="M0 0 C0.78956589 -0.00979385 1.57913177 -0.01958771 2.3926239 -0.02967834 C20.09803253 -0.20397215 37.23415999 -0.03038412 54.53125 4.23828125 C55.38589844 4.44727051 56.24054688 4.65625977 57.12109375 4.87158203 C106.50228744 17.41417974 147.76986947 49.69942558 173.7109375 93.21728516 C182.00108346 107.52682821 188.02321349 122.91492446 192.34375 138.86328125 C192.61783691 139.86174072 192.61783691 139.86174072 192.89746094 140.88037109 C196.52128188 155.17805281 198.03692757 169.57048441 197.92236328 184.29052734 C197.90624842 186.73852181 197.92235419 189.18486646 197.94140625 191.6328125 C197.9612433 206.29184135 196.15126413 220.77838278 192.21875 234.92578125 C192.00710205 235.70284424 191.7954541 236.47990723 191.57739258 237.28051758 C187.73125741 251.00712075 182.21074148 263.67024823 175.53125 276.23828125 C174.92667969 277.39972656 174.32210938 278.56117188 173.69921875 279.7578125 C165.53576119 294.79576063 154.56915251 308.13417222 142.53125 320.23828125 C141.78222412 320.99334961 141.78222412 320.99334961 141.01806641 321.76367188 C132.33094234 330.40365865 122.76699132 337.53330345 112.53125 344.23828125 C111.8614209 344.67914063 111.1915918 345.12 110.50146484 345.57421875 C91.95840509 357.58739121 71.06659963 365.54251275 49.53125 370.23828125 C48.32662109 370.50294189 48.32662109 370.50294189 47.09765625 370.77294922 C23.82203404 375.59337262 -3.31663408 375.43327447 -26.46875 370.23828125 C-27.34789062 370.05023926 -28.22703125 369.86219727 -29.1328125 369.66845703 C-58.95108325 363.1431147 -84.44678823 349.74462642 -108.46875 331.23828125 C-112.47392396 332.84201273 -115.1458598 335.65942111 -118.109375 338.68359375 C-118.63642029 339.21346893 -119.16346558 339.74334412 -119.70648193 340.28927612 C-121.38200675 341.9759595 -123.05042722 343.66947689 -124.71875 345.36328125 C-125.85630851 346.51087513 -126.99432436 347.65801586 -128.1328125 348.8046875 C-130.91678465 351.61066262 -133.6944076 354.42278589 -136.46875 357.23828125 C-134.90393754 360.56518046 -133.25390999 362.56134726 -130.53125 365.05078125 C-125.84240296 369.64602154 -123.86035221 373.1054636 -123.03125 379.73828125 C-123.86756837 386.42882819 -127.83874986 390.98339133 -132.47851562 395.62226868 C-132.96913734 396.1168648 -133.45975906 396.61146093 -133.96524811 397.12104481 C-135.59480829 398.76015349 -137.23477134 400.38841834 -138.875 402.0168457 C-140.05198033 403.19625637 -141.22831448 404.37631219 -142.40405273 405.55696106 C-145.58718268 408.74946779 -148.77960629 411.93252648 -151.97409058 415.11366677 C-155.31890278 418.44713705 -158.65597193 421.78834309 -161.99414062 425.12846375 C-167.5976681 430.73287302 -173.20713515 436.3312821 -178.8203125 441.92602539 C-185.31029254 448.39481379 -191.79137229 454.87241387 -198.26764679 461.35492164 C-204.50144674 467.59441408 -210.74089808 473.82822392 -216.9831543 480.0592556 C-219.63871922 482.71017568 -222.29238994 485.36297088 -224.94458008 488.01726723 C-228.0655605 491.14012999 -231.19148654 494.25795679 -234.32131958 497.37194633 C-235.46951924 498.515901 -236.61602447 499.66155926 -237.76071167 500.80902863 C-239.32222779 502.37376393 -240.88975465 503.93221813 -242.45898438 505.48921204 C-243.7730426 506.80019096 -243.7730426 506.80019096 -245.11364746 508.1376543 C-248.95357699 511.56266842 -251.72540877 512.5415958 -256.84375 512.61328125 C-257.75898438 512.64164063 -258.67421875 512.67 -259.6171875 512.69921875 C-267.51633156 511.42237081 -273.25039492 503.74571088 -278.609375 498.36328125 C-279.58220766 497.39179782 -280.55533687 496.42061128 -281.52874756 495.44970703 C-283.55921373 493.4221772 -285.58604927 491.39110524 -287.61035156 489.35742188 C-290.20159952 486.75474974 -292.8017652 484.16120137 -295.40469742 481.57022095 C-297.41233801 479.5698133 -299.41518358 477.56465938 -301.41661835 475.55804443 C-302.83756824 474.13511834 -304.26253533 472.71620753 -305.68756104 471.29736328 C-306.54895691 470.42966309 -307.41035278 469.56196289 -308.29785156 468.66796875 C-309.05696838 467.90726074 -309.81608521 467.14655273 -310.59820557 466.36279297 C-313.87341954 462.64289712 -314.77475902 459.78923696 -314.84375 454.86328125 C-314.87210937 453.94804687 -314.90046875 453.0328125 -314.9296875 452.08984375 C-313.98236098 446.22926446 -309.57280326 442.09126734 -305.51040649 438.01924133 C-305.02527946 437.53028875 -304.54015242 437.04133617 -304.04032457 436.53756684 C-302.42693049 434.91392202 -300.80655219 433.29744143 -299.18603516 431.6809082 C-298.02237465 430.51289693 -296.85913165 429.34446957 -295.6962738 428.17565918 C-292.5460153 425.01204115 -289.38941337 421.85482651 -286.23120165 418.69915032 C-283.59266084 416.06168093 -280.95710639 413.42123722 -278.32149637 410.78083962 C-272.10371956 404.55197894 -265.88064316 398.32844804 -259.65429688 392.1081543 C-253.23468988 385.69459184 -246.8243252 379.27189658 -240.41839182 372.84467918 C-234.91284652 367.32151628 -229.40150967 361.80417978 -223.88552129 356.29144639 C-220.59336857 353.00110583 -217.30347569 349.70858361 -214.01918411 346.41039467 C-210.93144881 343.31008258 -207.8365399 340.21711499 -204.73599434 337.12961578 C-203.6006507 335.99663748 -202.46785006 334.86110415 -201.33782387 333.72282219 C-199.7924252 332.16695141 -198.23802229 330.62065783 -196.68106079 329.07637024 C-195.8142399 328.20938161 -194.94741901 327.34239298 -194.05433083 326.44913197 C-190.31814616 323.25443526 -186.97880135 321.43402865 -182.09375 320.80078125 C-172.85171479 321.91619929 -167.58247008 327.6150845 -161.46875 334.23828125 C-157.46357604 332.63454977 -154.7916402 329.81714139 -151.828125 326.79296875 C-151.30107971 326.26309357 -150.77403442 325.73321838 -150.23101807 325.18728638 C-148.55549325 323.500603 -146.88707278 321.80708561 -145.21875 320.11328125 C-144.08119149 318.96568737 -142.94317564 317.81854664 -141.8046875 316.671875 C-139.02071535 313.86589988 -136.2430924 311.05377661 -133.46875 308.23828125 C-135.04725444 304.03244973 -136.96326474 301.20604991 -139.84375 297.73828125 C-156.2935509 276.95766994 -167.15971618 251.10745536 -172.46875 225.23828125 C-172.62956055 224.48885254 -172.79037109 223.73942383 -172.95605469 222.96728516 C-178.1531748 197.69427943 -177.40117331 169.25882586 -171.46875 144.23828125 C-171.26507813 143.3575293 -171.06140625 142.47677734 -170.8515625 141.56933594 C-159.50520386 94.0301944 -128.41974863 52.44114671 -87.03271484 26.72460938 C-61.18424665 11.26173228 -30.38377857 0.31300756 0 0 Z M-105.87890625 81.89453125 C-108.153978 84.62301236 -110.32452324 87.40592498 -112.46875 90.23828125 C-113.25765625 91.25019531 -114.0465625 92.26210937 -114.859375 93.3046875 C-139.80223053 126.08010277 -149.89620704 168.12842755 -144.39257812 208.78051758 C-139.62935101 239.58606726 -126.66121332 266.64785989 -106.46875 290.23828125 C-105.93636719 290.893125 -105.40398437 291.54796875 -104.85546875 292.22265625 C-101.13332572 296.75745045 -96.97633388 300.49613614 -92.46875 304.23828125 C-91.97826172 304.66238281 -91.48777344 305.08648437 -90.98242188 305.5234375 C-70.48839892 323.23066792 -46.02892348 334.96558556 -19.46875 340.23828125 C-18.37578613 340.46040283 -18.37578613 340.46040283 -17.26074219 340.68701172 C21.63709765 348.35921835 63.67901467 339.71553402 96.734375 317.8515625 C132.3892167 293.57188223 156.96010287 257.94161778 165.08349609 215.34228516 C171.96503314 174.27902383 164.06959118 132.35609862 140.2109375 97.80078125 C136.02023067 92.07688899 131.45593701 86.74458083 126.640625 81.5390625 C124.74089982 79.46695485 122.94898619 77.33986994 121.15625 75.17578125 C98.34230614 49.04248759 58.5777589 32.66669688 24.53125 30.23828125 C-25.06908167 27.64981836 -72.07510212 44.63912314 -105.87890625 81.89453125 Z " fill="#000000" transform="translate(314.46875,-0.23828125)"/>
<path d="M0 0 C1.21333008 -0.03903442 1.21333008 -0.03903442 2.45117188 -0.07885742 C9.08443453 -0.09881226 12.49844039 2.09404034 17.5 6.4375 C20.01549937 10.98474886 19.85660041 15.29858902 19.125 20.375 C16.78687324 25.32103738 13.85335596 27.72601461 9.125 30.375 C6.41198496 30.71805775 4.01764187 30.87813712 1.3125 30.875 C-24.05288862 31.68779828 -46.88475465 42.90712201 -65.02734375 60.45703125 C-82.05667109 78.63288756 -91.03684149 102.41366703 -91.50390625 127.140625 C-92.07417597 132.11097581 -93.73768549 135.348643 -97.4375 138.6875 C-102.16474603 141.96020879 -106.22241272 141.98374017 -111.875 141.375 C-117.02983807 138.98850089 -119.6725007 135.51997127 -121.875 130.375 C-125.69790937 103.75518251 -113.39022765 73.41829105 -97.875 52.375 C-97.26140625 51.53839844 -96.6478125 50.70179687 -96.015625 49.83984375 C-80.21407605 29.23906403 -57.92328869 12.7981854 -32.875 5.375 C-31.98941406 5.10300781 -31.10382813 4.83101563 -30.19140625 4.55078125 C-20.17921284 1.63943423 -10.41401693 0.18624916 0 0 Z " fill="#020100" transform="translate(320.875,59.625)"/>
<path d="M0 0 C3.29147966 1.55522521 5.36886411 3.1484168 7.8125 5.875 C8.43769531 6.55304688 9.06289062 7.23109375 9.70703125 7.9296875 C11 10 11 10 10.73707581 11.95184326 C9.50640549 15.37158067 6.76993698 17.59323354 4.21484375 20.078125 C3.63916153 20.64956238 3.06347931 21.22099976 2.47035217 21.80975342 C0.63299681 23.63033802 -1.21452132 25.44020568 -3.0625 27.25 C-4.31123138 28.48368253 -5.55928669 29.71804978 -6.80664062 30.953125 C-9.8633102 33.97674655 -12.92913526 36.99079921 -16 40 C-19.41059403 38.39464713 -21.61792484 36.59481099 -24.25 33.875 C-24.95640625 33.15054688 -25.6628125 32.42609375 -26.390625 31.6796875 C-26.92171875 31.12539063 -27.4528125 30.57109375 -28 30 C-26.36221955 25.80374091 -23.26676818 23.01323215 -20.1171875 19.921875 C-19.54292023 19.35043762 -18.96865295 18.77900024 -18.37698364 18.19024658 C-16.5476419 16.37207055 -14.71145807 14.56098508 -12.875 12.75 C-11.63105226 11.51608671 -10.3875573 10.28171678 -9.14453125 9.046875 C-6.10157633 6.02593257 -3.05246746 3.01132908 0 0 Z " fill="#2E2E2E" transform="translate(182,307)"/>
</svg>
