
<!-- Generator: visioncortex VTracer 0.6.4 -->
<svg version="1.1" xmlns="http://www.w3.org/2000/svg" viewBox="0 0 800 800" preserveAspectRatio="xMidYMid meet">
<path d="M0 0 C1.838 0.001 1.838 0.001 3.713 0.002 C100.309 0.198 196.13 35.373 267.531 101.18 C269.534 103.006 271.566 104.776 273.621 106.543 C278.454 110.762 282.976 115.267 287.5 119.812 C288.311 120.62 289.123 121.428 289.959 122.26 C294.826 127.135 299.483 132.12 303.938 137.375 C304.48 138.011 305.022 138.646 305.581 139.302 C314.597 149.936 322.974 160.935 330.938 172.375 C331.386 173.016 331.834 173.658 332.296 174.319 C349.784 199.491 363.579 226.965 374.938 255.375 C375.276 256.215 375.615 257.054 375.964 257.919 C391.812 297.581 400.874 342.032 401.176 384.785 C401.19 386.516 401.19 386.516 401.205 388.281 C401.378 413.908 401.209 439.066 396.938 464.375 C396.829 465.024 396.72 465.673 396.607 466.341 C393.562 484.336 389.285 501.932 383.938 519.375 C383.647 520.34 383.356 521.305 383.057 522.299 C369.152 567.997 345.721 611.108 315.938 648.375 C315.178 649.328 314.419 650.28 313.637 651.262 C309.337 656.586 304.891 661.742 300.273 666.793 C298.981 668.222 297.694 669.658 296.438 671.119 C291.694 676.637 286.657 681.805 281.5 686.938 C280.692 687.749 279.885 688.56 279.053 689.396 C274.177 694.264 269.192 698.921 263.938 703.375 C263.302 703.917 262.666 704.46 262.011 705.019 C251.375 714.035 240.369 722.396 228.938 730.375 C228.031 731.016 228.031 731.016 227.106 731.669 C167.12 773.914 90.329 800.081 16.781 800.613 C15.088 800.628 15.088 800.628 13.361 800.643 C-68.5 801.209 -145.236 782.735 -215.062 738.375 C-216.094 737.721 -217.125 737.068 -218.188 736.395 C-232.536 727.048 -246.198 716.668 -259.062 705.375 C-259.795 704.742 -260.527 704.109 -261.281 703.457 C-263.22 701.776 -265.142 700.077 -267.062 698.375 C-267.747 697.783 -268.431 697.192 -269.137 696.582 C-275.064 691.38 -280.666 685.878 -286.25 680.312 C-287.391 679.179 -287.391 679.179 -288.554 678.022 C-293.262 673.302 -297.747 668.456 -302.062 663.375 C-302.877 662.42 -302.877 662.42 -303.709 661.446 C-334.891 624.657 -359.639 582.751 -376.062 537.375 C-376.408 536.423 -376.753 535.472 -377.108 534.491 C-384.473 513.919 -389.852 492.857 -393.812 471.375 C-394.092 469.887 -394.092 469.887 -394.378 468.368 C-398.286 445.974 -399.618 423.514 -399.5 400.812 C-399.497 399.556 -399.494 398.299 -399.491 397.004 C-399.418 376.538 -398.476 356.56 -395.062 336.375 C-394.848 335.095 -394.634 333.814 -394.413 332.495 C-387.69 293.634 -375.459 256.722 -358.062 221.375 C-357.614 220.46 -357.166 219.544 -356.705 218.601 C-341.473 187.771 -321.566 159.071 -298.258 133.781 C-296.431 131.779 -294.661 129.746 -292.895 127.691 C-288.676 122.859 -284.17 118.336 -279.625 113.812 C-278.817 113.001 -278.01 112.19 -277.178 111.354 C-272.302 106.486 -267.317 101.829 -262.062 97.375 C-261.109 96.561 -261.109 96.561 -260.136 95.731 C-249.502 86.716 -238.502 78.339 -227.062 70.375 C-226.421 69.927 -225.78 69.478 -225.119 69.017 C-194.213 47.546 -159.82 30.963 -124.062 19.375 C-123.186 19.087 -122.31 18.798 -121.407 18.501 C-101.547 12.014 -81.325 7.363 -60.688 4.125 C-59.728 3.974 -58.769 3.823 -57.78 3.667 C-38.535 0.823 -19.439 -0.033 0 0 Z " fill="#1876F2" transform="translate(399.0625,-0.375)"/>
<path d="M0 0 C0.898 0.112 1.795 0.224 2.72 0.339 C5.267 0.659 7.814 0.986 10.359 1.316 C11.513 1.463 11.513 1.463 12.691 1.613 C18.015 2.32 18.015 2.32 20.25 3.438 C20.25 36.108 20.25 68.778 20.25 102.438 C-10.75 102.688 -10.75 102.688 -20.434 102.735 C-23.018 102.765 -25.603 102.796 -28.188 102.828 C-29.488 102.829 -30.788 102.83 -32.127 102.832 C-49.728 103.1 -66.574 107.593 -79.562 120.02 C-93.129 135.015 -94.048 153.328 -94.164 172.445 C-94.181 174.163 -94.199 175.88 -94.218 177.597 C-94.28 183.919 -94.327 190.241 -94.375 196.562 C-94.499 210.711 -94.623 224.86 -94.75 239.438 C-58.45 239.438 -22.15 239.438 15.25 239.438 C14.125 255.187 14.125 255.187 13.206 260.945 C13.002 262.242 12.798 263.539 12.588 264.875 C12.366 266.248 12.144 267.62 11.922 268.992 C11.688 270.465 11.455 271.938 11.222 273.41 C10.611 277.269 9.993 281.126 9.374 284.983 C8.762 288.797 8.157 292.611 7.551 296.426 C6.859 300.784 6.166 305.142 5.468 309.499 C3.019 324.805 0.643 340.122 -1.75 355.438 C-32.44 355.438 -63.13 355.438 -94.75 355.438 C-94.75 447.837 -94.75 540.237 -94.75 635.438 C-126.484 639.577 -126.484 639.577 -142.188 639.641 C-143.339 639.647 -144.491 639.654 -145.677 639.661 C-149.368 639.678 -153.059 639.685 -156.75 639.688 C-158.003 639.69 -159.256 639.692 -160.547 639.694 C-178.487 639.701 -196.002 639.225 -213.75 636.438 C-216.06 636.107 -218.37 635.778 -220.75 635.438 C-220.75 543.038 -220.75 450.638 -220.75 355.438 C-254.08 355.438 -287.41 355.438 -321.75 355.438 C-321.75 317.158 -321.75 278.877 -321.75 239.438 C-288.42 239.438 -255.09 239.438 -220.75 239.438 C-220.829 207.383 -220.829 207.383 -220.93 175.329 C-220.939 169.067 -220.939 169.067 -220.941 166.117 C-220.944 164.097 -220.951 162.078 -220.961 160.059 C-221.169 116.996 -213.601 73.379 -183.75 40.438 C-183.057 39.671 -183.057 39.671 -182.35 38.888 C-135.76 -11.961 -62.686 -7.815 0 0 Z " fill="#FEFEFE" transform="translate(557.75,160.5625)"/>
</svg>