
<!-- Generator: visioncortex VTracer 0.6.4 -->
<svg version="1.1" xmlns="http://www.w3.org/2000/svg" viewBox="0 0 800 800" preserveAspectRatio="xMidYMid meet">
<path d="M0 0 C1.375 1.073 1.375 1.073 2.777 2.168 C5.212 4.082 7.609 6.033 10 8 C10.878 8.71 10.878 8.71 11.773 9.435 C13.734 11.028 15.681 12.637 17.625 14.25 C18.254 14.758 18.884 15.266 19.532 15.789 C21.289 17.266 21.289 17.266 24 20 C24 24.781 23.364 25.138 20.117 28.398 C19.256 29.272 18.395 30.145 17.508 31.045 C16.542 32.005 15.575 32.965 14.608 33.925 C13.599 34.941 12.591 35.958 11.584 36.976 C8.843 39.739 6.089 42.49 3.333 45.237 C1.035 47.53 -1.256 49.829 -3.548 52.127 C-8.952 57.548 -14.366 62.959 -19.787 68.363 C-25.385 73.945 -30.967 79.543 -36.541 85.149 C-41.323 89.957 -46.114 94.756 -50.913 99.546 C-53.782 102.41 -56.646 105.277 -59.502 108.153 C-62.186 110.855 -64.882 113.546 -67.588 116.227 C-68.581 117.215 -69.57 118.207 -70.554 119.203 C-71.894 120.559 -73.251 121.899 -74.609 123.237 C-75.365 123.992 -76.12 124.747 -76.899 125.526 C-79 127 -79 127 -81.128 126.842 C-83.787 125.646 -85.723 123.957 -87.938 122.062 C-88.911 121.249 -89.884 120.436 -90.887 119.598 C-91.398 119.17 -91.909 118.742 -92.435 118.301 C-120.816 94.702 -155.444 80.01 -192 75 C-192.692 74.904 -193.384 74.809 -194.096 74.71 C-202.633 73.694 -211.228 73.756 -219.812 73.75 C-220.637 73.749 -221.461 73.749 -222.31 73.748 C-235.107 73.765 -247.442 74.363 -260 77 C-260.838 77.166 -261.675 77.333 -262.539 77.504 C-311.248 87.331 -356.245 114.934 -387 154 C-388.17 155.427 -388.17 155.427 -389.363 156.883 C-419.684 194.699 -436.208 243.924 -436.25 292.188 C-436.251 292.89 -436.251 293.593 -436.252 294.317 C-436.162 353.687 -411.14 409.069 -369.938 451.312 C-364.899 456.231 -359.531 460.65 -354 465 C-353.025 465.791 -352.051 466.583 -351.047 467.398 C-317.641 494.005 -273.402 511.945 -230.398 512.203 C-229.608 512.21 -228.817 512.217 -228.002 512.224 C-225.46 512.242 -222.917 512.248 -220.375 512.25 C-219.068 512.251 -219.068 512.251 -217.735 512.252 C-203.952 512.235 -190.565 511.623 -177 509 C-175.668 508.751 -175.668 508.751 -174.31 508.496 C-135.841 501.09 -101.511 484.967 -73 458 C-72.129 457.193 -71.257 456.386 -70.359 455.555 C-58.074 443.796 -48.725 430.09 -41 415 C-40.682 414.383 -40.364 413.766 -40.036 413.13 C-36.363 405.909 -33.344 398.549 -30.75 390.875 C-30.399 389.838 -30.399 389.838 -30.04 388.78 C-27.917 382.231 -26.565 375.783 -25 369 C-89.68 369 -154.36 369 -221 369 C-221 321.81 -221 274.62 -221 226 C-106.82 226 7.36 226 125 226 C129.119 251.744 131.415 275.242 131.375 301.062 C131.375 301.72 131.375 302.377 131.374 303.054 C131.364 324.948 130.562 346.38 127 368 C126.891 368.667 126.782 369.335 126.67 370.023 C113.32 451.292 74.459 532.737 8 584 C6.996 584.821 5.992 585.642 4.957 586.488 C-45.773 627.833 -108.603 650.024 -173 658 C-173.921 658.119 -174.842 658.237 -175.791 658.359 C-272.478 670.292 -371.337 641.84 -447.898 582.258 C-465.82 568.131 -483.27 552.46 -498 535 C-498.784 534.105 -499.567 533.211 -500.375 532.289 C-557.415 466.793 -588.196 380.56 -588.25 294.062 C-588.251 293.092 -588.251 292.122 -588.252 291.122 C-588.233 274.237 -587.421 257.734 -585 241 C-584.834 239.848 -584.667 238.695 -584.496 237.508 C-574.889 173.605 -548.033 110.425 -506 61 C-505.14 59.967 -504.28 58.933 -503.422 57.898 C-491.018 43.008 -477.832 28.513 -463 16 C-461.658 14.824 -461.658 14.824 -460.289 13.625 C-405.595 -34.007 -336.601 -62.766 -265 -72 C-264.12 -72.119 -263.241 -72.237 -262.334 -72.359 C-170.433 -84.261 -72.358 -57.702 0 0 Z " fill="#34A853" transform="translate(621,107)"/>
<path d="M0 0 C1.375 1.073 1.375 1.073 2.777 2.168 C5.212 4.082 7.609 6.033 10 8 C10.878 8.71 10.878 8.71 11.773 9.435 C13.734 11.028 15.681 12.637 17.625 14.25 C18.254 14.758 18.884 15.266 19.532 15.789 C21.289 17.266 21.289 17.266 24 20 C24 24.781 23.364 25.138 20.117 28.398 C19.256 29.272 18.395 30.145 17.508 31.045 C16.542 32.005 15.575 32.965 14.608 33.925 C13.599 34.941 12.591 35.958 11.584 36.976 C8.843 39.739 6.089 42.49 3.333 45.237 C1.035 47.53 -1.256 49.829 -3.548 52.127 C-8.952 57.548 -14.366 62.959 -19.787 68.363 C-25.385 73.945 -30.967 79.543 -36.541 85.149 C-41.323 89.957 -46.114 94.756 -50.913 99.546 C-53.782 102.41 -56.646 105.277 -59.502 108.153 C-62.186 110.855 -64.882 113.546 -67.588 116.227 C-68.581 117.215 -69.57 118.207 -70.554 119.203 C-71.894 120.559 -73.251 121.899 -74.609 123.237 C-75.365 123.992 -76.12 124.747 -76.899 125.526 C-79 127 -79 127 -81.128 126.842 C-83.787 125.646 -85.723 123.957 -87.938 122.062 C-88.911 121.249 -89.884 120.436 -90.887 119.598 C-91.398 119.17 -91.909 118.742 -92.435 118.301 C-120.816 94.702 -155.444 80.01 -192 75 C-192.692 74.904 -193.384 74.809 -194.096 74.71 C-202.633 73.694 -211.228 73.756 -219.812 73.75 C-220.637 73.749 -221.461 73.749 -222.31 73.748 C-235.107 73.765 -247.442 74.363 -260 77 C-260.838 77.166 -261.675 77.333 -262.539 77.504 C-311.248 87.331 -356.245 114.934 -387 154 C-388.17 155.427 -388.17 155.427 -389.363 156.883 C-419.684 194.699 -436.208 243.924 -436.25 292.188 C-436.251 292.89 -436.251 293.593 -436.252 294.317 C-436.224 312.828 -433.779 330.319 -429.184 348.238 C-427.934 353.123 -426.943 358.048 -426 363 C-433.57 369.134 -441.178 375.191 -449 381 C-454.227 384.884 -459.37 388.847 -464.438 392.938 C-470.37 397.726 -476.388 402.388 -482.455 407.006 C-489.924 412.694 -497.33 418.462 -504.734 424.234 C-508.487 427.159 -512.244 430.079 -516 433 C-520.665 436.628 -525.329 440.256 -529.992 443.887 C-530.809 444.523 -531.627 445.159 -532.469 445.814 C-534.034 447.033 -535.599 448.252 -537.164 449.471 C-538.224 450.295 -538.224 450.295 -539.305 451.137 C-539.923 451.618 -540.542 452.1 -541.179 452.596 C-541.78 453.06 -542.381 453.523 -543 454 C-543.674 454.554 -544.349 455.108 -545.043 455.679 C-547 457 -547 457 -550 457 C-575.601 406.449 -588.214 350.613 -588.25 294.062 C-588.251 293.092 -588.251 292.122 -588.252 291.122 C-588.233 274.237 -587.421 257.734 -585 241 C-584.834 239.848 -584.667 238.695 -584.496 237.508 C-574.889 173.605 -548.033 110.425 -506 61 C-505.14 59.967 -504.28 58.933 -503.422 57.898 C-491.018 43.008 -477.832 28.513 -463 16 C-461.658 14.824 -461.658 14.824 -460.289 13.625 C-405.595 -34.007 -336.601 -62.766 -265 -72 C-264.12 -72.119 -263.241 -72.237 -262.334 -72.359 C-170.433 -84.261 -72.358 -57.702 0 0 Z " fill="#EA4334" transform="translate(621,107)"/>
<path d="M0 0 C114.18 0 228.36 0 346 0 C350.119 25.744 352.415 49.242 352.375 75.062 C352.375 76.048 352.375 76.048 352.374 77.054 C352.364 98.948 351.562 120.38 348 142 C347.891 142.667 347.782 143.335 347.67 144.023 C334.823 222.226 300.22 289.596 244 345 C241.269 343.712 238.912 342.297 236.523 340.453 C235.862 339.945 235.201 339.438 234.52 338.914 C233.812 338.365 233.104 337.816 232.375 337.25 C231.628 336.674 230.881 336.099 230.111 335.506 C227.738 333.675 225.368 331.838 223 330 C222.253 329.421 221.506 328.841 220.736 328.245 C216.241 324.758 211.752 321.264 207.266 317.766 C203.513 314.841 199.756 311.921 196 309 C194.5 307.833 193 306.667 191.5 305.5 C190.757 304.923 190.015 304.345 189.25 303.75 C167.5 286.833 145.75 269.917 124 253 C127.029 249.836 130.08 247.09 133.604 244.464 C153.448 229.637 168.747 210.982 180 189 C180.318 188.383 180.636 187.766 180.964 187.13 C184.637 179.909 187.656 172.549 190.25 164.875 C190.484 164.184 190.718 163.492 190.96 162.78 C193.083 156.231 194.435 149.783 196 143 C131.32 143 66.64 143 0 143 C0 95.81 0 48.62 0 0 Z " fill="#4185F3" transform="translate(400,333)"/>
<path d="M0 0 C4.053 0.586 6.463 2.683 9.625 5.188 C10.79 6.103 11.956 7.018 13.121 7.934 C13.746 8.428 14.371 8.923 15.015 9.433 C17.808 11.638 20.62 13.817 23.43 15.998 C25.724 17.778 28.014 19.56 30.305 21.344 C31.078 21.946 31.851 22.548 32.647 23.168 C34.216 24.389 35.784 25.611 37.353 26.832 C48.407 35.441 48.407 35.441 59.5 44 C68.485 50.9 77.414 57.872 86.353 64.832 C94.931 71.512 103.517 78.18 112.141 84.801 C116.106 87.851 120.055 90.923 124 94 C122.9 99.774 121.658 105.48 120.198 111.173 C111.154 146.958 111.663 183.544 120.816 219.238 C122.066 224.123 123.057 229.048 124 234 C116.43 240.134 108.822 246.191 101 252 C95.773 255.884 90.63 259.847 85.562 263.938 C79.63 268.726 73.612 273.388 67.545 278.006 C60.076 283.694 52.67 289.462 45.266 295.234 C41.513 298.159 37.756 301.079 34 304 C29.335 307.628 24.671 311.256 20.008 314.887 C19.191 315.523 18.373 316.159 17.531 316.814 C15.966 318.033 14.401 319.252 12.836 320.471 C12.13 321.02 11.423 321.57 10.695 322.137 C10.077 322.618 9.458 323.1 8.821 323.596 C8.22 324.06 7.619 324.523 7 325 C6.326 325.554 5.651 326.108 4.957 326.679 C3 328 3 328 0 328 C-25.601 277.449 -38.214 221.613 -38.25 165.062 C-38.251 164.092 -38.251 163.122 -38.252 162.122 C-38.233 145.237 -37.421 128.734 -35 112 C-34.834 110.848 -34.667 109.695 -34.496 108.508 C-28.804 70.648 -17.113 34.225 0 0 Z " fill="#FABB05" transform="translate(71,236)"/>
</svg>