<svg width="16" height="22" viewBox="0 0 16 22" fill="none" xmlns="http://www.w3.org/2000/svg">
<path d="M11.68 2.96C12.16 3.67 12.44 4.52 12.44 5.44C12.43 7.84 10.54 9.79 8.16 9.87C8.06 9.86 7.94 9.86 7.83 9.87C5.62 9.8 3.83 8.11 3.59 5.95C3.3 3.38 5.41 1 7.99 1M2.99 13.56C0.570003 15.18 0.570003 17.82 2.99 19.43C5.74 21.27 10.25 21.27 13 19.43C15.42 17.81 15.42 15.17 13 13.56C10.27 11.73 5.76 11.73 2.99 13.56Z" stroke="#272727" stroke-opacity="0.5" stroke-width="1.5" stroke-linecap="round" stroke-linejoin="round"/>
</svg>
